<svg xmlns="http://www.w3.org/2000/svg" xmlns:xlink="http://www.w3.org/1999/xlink" width="500" zoomAndPan="magnify" viewBox="0 0 375 374.999991" height="500" preserveAspectRatio="xMidYMid meet" version="1.0"><defs><g/><clipPath id="a48d718a2c"><path d="M 104 180.222656 L 258.726562 180.222656 L 258.726562 215.417969 L 104 215.417969 Z M 104 180.222656 " clip-rule="nonzero"/></clipPath></defs><rect x="-37.5" width="450" fill="#ffffff" y="-37.499999" height="449.999989" fill-opacity="1"/><rect x="-37.5" width="450" fill="#ffffff" y="-37.499999" height="449.999989" fill-opacity="1"/><g fill="#000000" fill-opacity="1"><g transform="translate(-3.891432, 210.426755)"><g><path d="M 59.296875 -77.1875 L 59.296875 -27.359375 C 59.296875 -18.128906 56.878906 -11.132812 52.046875 -6.375 C 47.222656 -1.613281 40.445312 0.765625 31.71875 0.765625 C 22.34375 0.765625 14.894531 -1.8125 9.375 -6.96875 C 3.851562 -12.132812 1.09375 -19.660156 1.09375 -29.546875 L 24.96875 -29.546875 C 24.96875 -26.421875 25.472656 -24.222656 26.484375 -22.953125 C 27.503906 -21.679688 28.890625 -21.046875 30.640625 -21.046875 C 32.085938 -21.046875 33.210938 -21.515625 34.015625 -22.453125 C 34.816406 -23.398438 35.21875 -25.035156 35.21875 -27.359375 L 35.21875 -77.1875 Z M 59.296875 -77.1875 "/></g></g></g><g fill="#000000" fill-opacity="1"><g transform="translate(51.377571, 210.426755)"><g><path d="M 29.109375 -77.1875 L 29.109375 -33.6875 C 29.109375 -30.125 29.890625 -27.304688 31.453125 -25.234375 C 33.015625 -23.160156 35.539062 -22.125 39.03125 -22.125 C 42.519531 -22.125 45.097656 -23.160156 46.765625 -25.234375 C 48.441406 -27.304688 49.28125 -30.125 49.28125 -33.6875 L 49.28125 -77.1875 L 73.375 -77.1875 L 73.375 -33.6875 C 73.375 -26.34375 71.84375 -20.070312 68.78125 -14.875 C 65.726562 -9.6875 61.550781 -5.78125 56.25 -3.15625 C 50.945312 -0.539062 45.023438 0.765625 38.484375 0.765625 C 31.941406 0.765625 26.144531 -0.539062 21.09375 -3.15625 C 16.039062 -5.78125 12.097656 -9.671875 9.265625 -14.828125 C 6.429688 -19.984375 5.015625 -26.269531 5.015625 -33.6875 L 5.015625 -77.1875 Z M 29.109375 -77.1875 "/></g></g></g><g fill="#000000" fill-opacity="1"><g transform="translate(120.709434, 210.426755)"><g><path d="M 79.46875 0 L 55.265625 0 L 29.65625 -38.8125 L 29.65625 0 L 5.453125 0 L 5.453125 -77.1875 L 29.65625 -77.1875 L 55.265625 -37.71875 L 55.265625 -77.1875 L 79.46875 -77.1875 Z M 79.46875 0 "/></g></g></g><g fill="#000000" fill-opacity="1"><g transform="translate(196.582169, 210.426755)"><g><path d="M 54.9375 -11.671875 L 29.21875 -11.671875 L 25.40625 0 L 0 0 L 28.234375 -77.1875 L 56.140625 -77.1875 L 84.265625 0 L 58.765625 0 Z M 49.0625 -29.875 L 42.078125 -51.34375 L 35.109375 -29.875 Z M 49.0625 -29.875 "/></g></g></g><g fill="#000000" fill-opacity="1"><g transform="translate(271.800801, 210.426755)"><g><path d="M 29.65625 -77.1875 L 29.65625 0 L 5.453125 0 L 5.453125 -77.1875 Z M 29.65625 -77.1875 "/></g></g></g><g fill="#000000" fill-opacity="1"><g transform="translate(297.853941, 210.426755)"><g><path d="M 37.609375 -77.1875 C 45.679688 -77.1875 52.75 -75.550781 58.8125 -72.28125 C 64.882812 -69.007812 69.554688 -64.460938 72.828125 -58.640625 C 76.097656 -52.828125 77.734375 -46.21875 77.734375 -38.8125 C 77.734375 -31.46875 76.097656 -24.851562 72.828125 -18.96875 C 69.554688 -13.082031 64.882812 -8.445312 58.8125 -5.0625 C 52.75 -1.6875 45.679688 0 37.609375 0 L 5.453125 0 L 5.453125 -77.1875 Z M 35.4375 -21.578125 C 40.882812 -21.578125 45.207031 -23.066406 48.40625 -26.046875 C 51.601562 -29.035156 53.203125 -33.289062 53.203125 -38.8125 C 53.203125 -44.332031 51.601562 -48.582031 48.40625 -51.5625 C 45.207031 -54.539062 40.882812 -56.03125 35.4375 -56.03125 L 29.65625 -56.03125 L 29.65625 -21.578125 Z M 35.4375 -21.578125 "/></g></g></g><path fill="#8c52ff" d="M 21.894531 136.632812 C 20.1875 153.0625 25.464844 172.21875 42.460938 181.488281 C 56.121094 188.9375 72.046875 190.050781 87.28125 189.09375 C 104.054688 188.039062 120.5625 184.488281 136.726562 180.003906 C 148.582031 176.714844 160.277344 172.855469 172.027344 169.234375 C 188.675781 164.09375 206.324219 160.382812 223.464844 163.5 C 236.359375 165.84375 248.507812 172.125 257.921875 181.242188 C 245.6875 174.703125 231.519531 172.332031 217.761719 172.992188 C 211.703125 173.28125 205.726562 174.5 199.851562 175.996094 C 166.347656 184.546875 135.222656 202.449219 100.84375 206.15625 C 90.03125 207.324219 78.878906 207.730469 68.0625 206.378906 C 50.453125 204.179688 35.792969 195.648438 26.753906 180.152344 C 19.148438 167.113281 16.5 150.730469 21.894531 136.632812 " fill-opacity="1" fill-rule="nonzero"/><g clip-path="url(#a48d718a2c)"><path fill="#5e17eb" d="M 166.242188 198.078125 C 181.921875 191.667969 196.878906 183.882812 213.625 181.324219 C 229.28125 178.933594 246.371094 181.003906 259.070312 190.253906 C 245.953125 185.253906 232.785156 185.054688 219.703125 187.640625 C 203.863281 190.773438 187.648438 198.109375 172.449219 203.550781 C 162.089844 207.261719 152.417969 210.964844 141.601562 212.988281 C 129.328125 215.285156 116.707031 216.355469 104.300781 214.90625 C 127.265625 213.894531 146.523438 206.136719 166.242188 198.078125 " fill-opacity="1" fill-rule="nonzero"/></g><path fill="#5e17eb" d="M 39.785156 133.761719 C 41.644531 130.773438 44.164062 128.269531 47.394531 126.609375 C 52.269531 124.105469 58.550781 123.21875 63.722656 125.339844 C 62.21875 124.722656 59.199219 125.273438 57.601562 125.433594 C 51.792969 126.015625 47.066406 129.808594 44.460938 134.972656 C 40.382812 143.058594 42.507812 154.441406 47.90625 161.441406 C 49.550781 163.574219 52.648438 165.710938 54.933594 167.132812 C 69.300781 176.046875 87.195312 174.355469 103.082031 171.351562 C 107.617188 170.492188 113.199219 169.90625 117.699219 168.867188 C 130.808594 165.832031 142.859375 162.433594 155.925781 159.226562 C 155.925781 159.226562 151.226562 160.992188 150.234375 161.363281 C 148.253906 162.101562 146.277344 162.84375 144.296875 163.585938 C 128.476562 169.519531 112.554688 175.390625 95.867188 178.367188 C 82.917969 180.671875 69.390625 181.917969 56.824219 177.140625 C 48.464844 173.960938 40.960938 167.984375 37.703125 159.652344 C 34.640625 151.8125 35.121094 141.265625 39.785156 133.761719 " fill-opacity="1" fill-rule="nonzero"/><path fill="#8c52ff" d="M 63.484375 159.835938 C 55.933594 153.40625 54.664062 142.5 60.648438 135.472656 C 62.742188 133.015625 65.445312 131.359375 68.402344 130.519531 C 64.089844 130.957031 60.027344 132.914062 57.09375 136.359375 C 50.757812 143.800781 52.101562 155.355469 60.101562 162.164062 C 68.097656 168.976562 79.71875 168.464844 86.058594 161.023438 C 86.386719 160.636719 86.695312 160.238281 86.984375 159.828125 C 80.839844 165.8125 70.628906 165.917969 63.484375 159.835938 " fill-opacity="1" fill-rule="nonzero"/><g fill="#000000" fill-opacity="1"><g transform="translate(159.711026, 229.674141)"><g><path d="M 21.265625 -15.546875 L 16.75 0 L 14.484375 0 L 10.859375 -12.515625 L 7.125 0 L 4.859375 0.015625 L 0.515625 -15.546875 L 2.671875 -15.546875 L 6.0625 -2.359375 L 9.8125 -15.546875 L 12.09375 -15.546875 L 15.65625 -2.40625 L 19.078125 -15.546875 Z M 21.265625 -15.546875 "/></g></g></g><g fill="#000000" fill-opacity="1"><g transform="translate(199.322747, 229.674141)"><g><path d="M 3.75 -13.90625 L 3.75 -8.703125 L 9.421875 -8.703125 L 9.421875 -7.03125 L 3.75 -7.03125 L 3.75 -1.671875 L 10.078125 -1.671875 L 10.078125 0 L 1.71875 0 L 1.71875 -15.578125 L 10.078125 -15.578125 L 10.078125 -13.90625 Z M 3.75 -13.90625 "/></g></g></g><g fill="#000000" fill-opacity="1"><g transform="translate(228.609209, 229.674141)"><g><path d="M 9.5 -8.015625 C 10.070312 -7.921875 10.59375 -7.6875 11.0625 -7.3125 C 11.53125 -6.945312 11.898438 -6.488281 12.171875 -5.9375 C 12.441406 -5.382812 12.578125 -4.796875 12.578125 -4.171875 C 12.578125 -3.378906 12.375 -2.664062 11.96875 -2.03125 C 11.570312 -1.40625 10.988281 -0.910156 10.21875 -0.546875 C 9.457031 -0.179688 8.554688 0 7.515625 0 L 1.71875 0 L 1.71875 -15.546875 L 7.296875 -15.546875 C 8.347656 -15.546875 9.242188 -15.367188 9.984375 -15.015625 C 10.734375 -14.671875 11.296875 -14.203125 11.671875 -13.609375 C 12.046875 -13.015625 12.234375 -12.347656 12.234375 -11.609375 C 12.234375 -10.679688 11.984375 -9.914062 11.484375 -9.3125 C 10.984375 -8.707031 10.320312 -8.273438 9.5 -8.015625 Z M 3.75 -8.828125 L 7.15625 -8.828125 C 8.113281 -8.828125 8.851562 -9.050781 9.375 -9.5 C 9.894531 -9.945312 10.15625 -10.566406 10.15625 -11.359375 C 10.15625 -12.148438 9.894531 -12.765625 9.375 -13.203125 C 8.851562 -13.648438 8.101562 -13.875 7.125 -13.875 L 3.75 -13.875 Z M 7.34375 -1.671875 C 8.351562 -1.671875 9.140625 -1.90625 9.703125 -2.375 C 10.265625 -2.851562 10.546875 -3.519531 10.546875 -4.375 C 10.546875 -5.238281 10.25 -5.914062 9.65625 -6.40625 C 9.0625 -6.90625 8.269531 -7.15625 7.28125 -7.15625 L 3.75 -7.15625 L 3.75 -1.671875 Z M 7.34375 -1.671875 "/></g></g></g><g fill="#000000" fill-opacity="1"><g transform="translate(70.203219, 260.424139)"><g><path d="M 6.5625 -15.546875 C 8.257812 -15.546875 9.726562 -15.226562 10.96875 -14.59375 C 12.207031 -13.96875 13.15625 -13.066406 13.8125 -11.890625 C 14.476562 -10.710938 14.8125 -9.332031 14.8125 -7.75 C 14.8125 -6.15625 14.476562 -4.773438 13.8125 -3.609375 C 13.15625 -2.441406 12.207031 -1.546875 10.96875 -0.921875 C 9.726562 -0.304688 8.257812 0 6.5625 0 L 1.71875 0 L 1.71875 -15.546875 Z M 6.5625 -1.671875 C 8.570312 -1.671875 10.101562 -2.203125 11.15625 -3.265625 C 12.207031 -4.328125 12.734375 -5.820312 12.734375 -7.75 C 12.734375 -9.675781 12.203125 -11.179688 11.140625 -12.265625 C 10.078125 -13.359375 8.550781 -13.90625 6.5625 -13.90625 L 3.75 -13.90625 L 3.75 -1.671875 Z M 6.5625 -1.671875 "/></g></g></g><g fill="#000000" fill-opacity="1"><g transform="translate(103.816028, 260.424139)"><g><path d="M 3.75 -13.90625 L 3.75 -8.703125 L 9.421875 -8.703125 L 9.421875 -7.03125 L 3.75 -7.03125 L 3.75 -1.671875 L 10.078125 -1.671875 L 10.078125 0 L 1.71875 0 L 1.71875 -15.578125 L 10.078125 -15.578125 L 10.078125 -13.90625 Z M 3.75 -13.90625 "/></g></g></g><g fill="#000000" fill-opacity="1"><g transform="translate(133.102489, 260.424139)"><g><path d="M 14.5625 -15.546875 L 8.703125 0 L 6.359375 0 L 0.484375 -15.546875 L 2.65625 -15.546875 L 7.546875 -2.140625 L 12.421875 -15.546875 Z M 14.5625 -15.546875 "/></g></g></g><g fill="#000000" fill-opacity="1"><g transform="translate(166.023975, 260.424139)"><g><path d="M 3.75 -13.90625 L 3.75 -8.703125 L 9.421875 -8.703125 L 9.421875 -7.03125 L 3.75 -7.03125 L 3.75 -1.671875 L 10.078125 -1.671875 L 10.078125 0 L 1.71875 0 L 1.71875 -15.578125 L 10.078125 -15.578125 L 10.078125 -13.90625 Z M 3.75 -13.90625 "/></g></g></g><g fill="#000000" fill-opacity="1"><g transform="translate(195.310434, 260.424139)"><g><path d="M 3.75 -1.65625 L 9.1875 -1.65625 L 9.1875 0 L 1.71875 0 L 1.71875 -15.546875 L 3.75 -15.546875 Z M 3.75 -1.65625 "/></g></g></g><g fill="#000000" fill-opacity="1"><g transform="translate(222.790523, 260.424139)"><g><path d="M 8.765625 0.15625 C 7.328125 0.15625 6.007812 -0.179688 4.8125 -0.859375 C 3.625 -1.535156 2.679688 -2.476562 1.984375 -3.6875 C 1.296875 -4.90625 0.953125 -6.269531 0.953125 -7.78125 C 0.953125 -9.300781 1.296875 -10.664062 1.984375 -11.875 C 2.679688 -13.09375 3.625 -14.039062 4.8125 -14.71875 C 6.007812 -15.394531 7.328125 -15.734375 8.765625 -15.734375 C 10.222656 -15.734375 11.546875 -15.394531 12.734375 -14.71875 C 13.929688 -14.039062 14.867188 -13.097656 15.546875 -11.890625 C 16.234375 -10.679688 16.578125 -9.3125 16.578125 -7.78125 C 16.578125 -6.25 16.234375 -4.878906 15.546875 -3.671875 C 14.867188 -2.472656 13.929688 -1.535156 12.734375 -0.859375 C 11.546875 -0.179688 10.222656 0.15625 8.765625 0.15625 Z M 8.765625 -1.609375 C 9.847656 -1.609375 10.828125 -1.859375 11.703125 -2.359375 C 12.578125 -2.867188 13.257812 -3.59375 13.75 -4.53125 C 14.25 -5.46875 14.5 -6.550781 14.5 -7.78125 C 14.5 -9.03125 14.25 -10.117188 13.75 -11.046875 C 13.257812 -11.984375 12.582031 -12.703125 11.71875 -13.203125 C 10.851562 -13.710938 9.867188 -13.96875 8.765625 -13.96875 C 7.671875 -13.96875 6.691406 -13.710938 5.828125 -13.203125 C 4.960938 -12.703125 4.28125 -11.984375 3.78125 -11.046875 C 3.28125 -10.117188 3.03125 -9.03125 3.03125 -7.78125 C 3.03125 -6.550781 3.28125 -5.46875 3.78125 -4.53125 C 4.28125 -3.59375 4.960938 -2.867188 5.828125 -2.359375 C 6.703125 -1.859375 7.679688 -1.609375 8.765625 -1.609375 Z M 8.765625 -1.609375 "/></g></g></g><g fill="#000000" fill-opacity="1"><g transform="translate(258.16509, 260.424139)"><g><path d="M 12.109375 -11 C 12.109375 -9.707031 11.664062 -8.632812 10.78125 -7.78125 C 9.894531 -6.925781 8.546875 -6.5 6.734375 -6.5 L 3.75 -6.5 L 3.75 0 L 1.71875 0 L 1.71875 -15.546875 L 6.734375 -15.546875 C 8.492188 -15.546875 9.828125 -15.125 10.734375 -14.28125 C 11.648438 -13.4375 12.109375 -12.34375 12.109375 -11 Z M 6.734375 -8.171875 C 7.867188 -8.171875 8.703125 -8.414062 9.234375 -8.90625 C 9.773438 -9.394531 10.046875 -10.09375 10.046875 -11 C 10.046875 -12.914062 8.941406 -13.875 6.734375 -13.875 L 3.75 -13.875 L 3.75 -8.171875 Z M 6.734375 -8.171875 "/></g></g></g><g fill="#000000" fill-opacity="1"><g transform="translate(288.923396, 260.424139)"><g><path d="M 3.75 -13.90625 L 3.75 -8.703125 L 9.421875 -8.703125 L 9.421875 -7.03125 L 3.75 -7.03125 L 3.75 -1.671875 L 10.078125 -1.671875 L 10.078125 0 L 1.71875 0 L 1.71875 -15.578125 L 10.078125 -15.578125 L 10.078125 -13.90625 Z M 3.75 -13.90625 "/></g></g></g><g fill="#000000" fill-opacity="1"><g transform="translate(318.209856, 260.424139)"><g><path d="M 9.90625 0 L 6.203125 -6.359375 L 3.75 -6.359375 L 3.75 0 L 1.71875 0 L 1.71875 -15.546875 L 6.734375 -15.546875 C 7.910156 -15.546875 8.90625 -15.34375 9.71875 -14.9375 C 10.53125 -14.539062 11.132812 -14 11.53125 -13.3125 C 11.9375 -12.632812 12.140625 -11.859375 12.140625 -10.984375 C 12.140625 -9.910156 11.828125 -8.960938 11.203125 -8.140625 C 10.585938 -7.328125 9.664062 -6.785156 8.4375 -6.515625 L 12.34375 0 Z M 3.75 -7.984375 L 6.734375 -7.984375 C 7.835938 -7.984375 8.664062 -8.253906 9.21875 -8.796875 C 9.769531 -9.335938 10.046875 -10.066406 10.046875 -10.984375 C 10.046875 -11.898438 9.769531 -12.609375 9.21875 -13.109375 C 8.675781 -13.617188 7.847656 -13.875 6.734375 -13.875 L 3.75 -13.875 Z M 3.75 -7.984375 "/></g></g></g></svg>